<svg width="1920" height="148" viewBox="0 0 1920 148" fill="none" xmlns="http://www.w3.org/2000/svg">
<path d="M0 145.961H13.0053C19.8424 145.961 23.4839 129.087 23.4839 106.166C23.4839 84.8627 20.2586 71.9962 16.7955 71.2228V69.8166C19.9613 66.4418 22.2949 55.8252 22.2949 38.8808C22.2949 17.296 18.906 1.96865 12.1879 1.96865H0V145.961ZM6.43578 121.072V82.8238H11.8311C14.9227 82.8238 16.8401 91.2608 16.8401 103.143C16.8401 113.971 15.2794 121.072 11.6825 121.072H6.43578ZM6.43578 62.2233V26.5767H11.3258C14.1795 26.5767 15.7996 33.5373 15.7996 43.943C15.7996 55.333 13.8377 62.2233 11.2069 62.2233H6.43578Z" fill="#1F1F1F"/>
<path d="M46.5182 1.96865V96.1121C46.5182 111.51 43.8874 120.861 40.2905 120.861C36.7382 120.861 34.1074 111.51 34.1074 96.1121V1.96865H27.6716V97.1667C27.6716 129.79 32.9035 148 40.2905 148C47.6478 148 52.9094 129.79 52.9094 97.1667V1.96865H46.5182Z" fill="#1F1F1F"/>
<path d="M56.4209 1.96865L67.5237 95.0575V145.961H73.9149V95.0575L85.0177 1.96865H77.8091L70.8679 63.981H70.5707L63.6295 1.96865H56.4209Z" fill="#1F1F1F"/>
<path d="M123.681 1.96865H117.275V92.5264H117.007L103.868 1.96865H98.22V145.961H104.656V55.333H104.879L118.122 145.961H123.681V1.96865Z" fill="#1F1F1F"/>
<path d="M156.971 73.9648C156.971 26.858 150.788 0 142.717 0C134.602 0 128.463 26.858 128.463 73.9648C128.463 120.861 134.602 147.93 142.717 147.93C150.788 147.93 156.971 121.072 156.971 73.9648ZM150.446 73.9648C150.446 104.479 147.384 121.001 142.717 121.001C138.035 121.001 134.988 104.479 134.988 73.9648C134.988 43.4508 138.035 26.9283 142.717 26.9283C147.384 26.9283 150.446 43.4508 150.446 73.9648Z" fill="#1F1F1F"/>
<path d="M168.59 145.961H174.862L180.644 51.8176H180.882L186.679 145.961H192.951L201.661 1.96865H194.63L189.592 102.229H189.324L183.78 1.96865H177.761L172.202 102.018H171.949L166.91 1.96865H159.88L168.59 145.961Z" fill="#1F1F1F"/>
<path d="M214.792 145.961H227.798C234.635 145.961 238.276 129.087 238.276 106.166C238.276 84.8627 235.051 71.9962 231.588 71.2228V69.8166C234.754 66.4418 237.087 55.8252 237.087 38.8808C237.087 17.296 233.698 1.96865 226.98 1.96865H214.792V145.961ZM221.228 121.072V82.8238H226.624C229.715 82.8238 231.632 91.2608 231.632 103.143C231.632 113.971 230.072 121.072 226.475 121.072H221.228ZM221.228 62.2233V26.5767H226.118C228.972 26.5767 230.592 33.5373 230.592 43.943C230.592 55.333 228.63 62.2233 225.999 62.2233H221.228Z" fill="#1F1F1F"/>
<path d="M261.311 1.96865V96.1121C261.311 111.51 258.68 120.861 255.083 120.861C251.531 120.861 248.9 111.51 248.9 96.1121V1.96865H242.464V97.1667C242.464 129.79 247.696 148 255.083 148C262.44 148 267.702 129.79 267.702 97.1667V1.96865H261.311Z" fill="#1F1F1F"/>
<path d="M271.213 1.96865L282.316 95.0575V145.961H288.707V95.0575L299.81 1.96865H292.601L285.66 63.981H285.363L278.422 1.96865H271.213Z" fill="#1F1F1F"/>
<path d="M338.473 1.96865H332.067V92.5264H331.8L318.66 1.96865H313.012V145.961H319.448V55.333H319.671L332.914 145.961H338.473V1.96865Z" fill="#1F1F1F"/>
<path d="M371.763 73.9648C371.763 26.858 365.58 0 357.509 0C349.394 0 343.255 26.858 343.255 73.9648C343.255 120.861 349.394 147.93 357.509 147.93C365.58 147.93 371.763 121.072 371.763 73.9648ZM365.238 73.9648C365.238 104.479 362.176 121.001 357.509 121.001C352.827 121.001 349.78 104.479 349.78 73.9648C349.78 43.4508 352.827 26.9283 357.509 26.9283C362.176 26.9283 365.238 43.4508 365.238 73.9648Z" fill="#1F1F1F"/>
<path d="M383.382 145.961H389.655L395.437 51.8176H395.674L401.471 145.961H407.743L416.453 1.96865H409.423L404.384 102.229H404.117L398.573 1.96865H392.553L386.994 102.018H386.742L381.703 1.96865H374.673L383.382 145.961Z" fill="#1F1F1F"/>
<path d="M429.585 145.961H442.59C449.427 145.961 453.069 129.087 453.069 106.166C453.069 84.8627 449.843 71.9962 446.38 71.2228V69.8166C449.546 66.4418 451.88 55.8252 451.88 38.8808C451.88 17.296 448.491 1.96865 441.773 1.96865H429.585V145.961ZM436.021 121.072V82.8238H441.416C444.508 82.8238 446.425 91.2608 446.425 103.143C446.425 113.971 444.864 121.072 441.267 121.072H436.021ZM436.021 62.2233V26.5767H440.911C443.764 26.5767 445.384 33.5373 445.384 43.943C445.384 55.333 443.422 62.2233 440.792 62.2233H436.021Z" fill="#1F1F1F"/>
<path d="M476.103 1.96865V96.1121C476.103 111.51 473.472 120.861 469.875 120.861C466.323 120.861 463.692 111.51 463.692 96.1121V1.96865H457.256V97.1667C457.256 129.79 462.488 148 469.875 148C477.233 148 482.494 129.79 482.494 97.1667V1.96865H476.103Z" fill="#1F1F1F"/>
<path d="M486.006 1.96865L497.109 95.0575V145.961H503.5V95.0575L514.603 1.96865H507.394L500.453 63.981H500.155L493.214 1.96865H486.006Z" fill="#1F1F1F"/>
<path d="M553.266 1.96865H546.859V92.5264H546.592L533.453 1.96865H527.805V145.961H534.241V55.333H534.464L547.707 145.961H553.266V1.96865Z" fill="#1F1F1F"/>
<path d="M586.555 73.9648C586.555 26.858 580.372 0 572.302 0C564.186 0 558.048 26.858 558.048 73.9648C558.048 120.861 564.186 147.93 572.302 147.93C580.372 147.93 586.555 121.072 586.555 73.9648ZM580.031 73.9648C580.031 104.479 576.969 121.001 572.302 121.001C567.62 121.001 564.573 104.479 564.573 73.9648C564.573 43.4508 567.62 26.9283 572.302 26.9283C576.969 26.9283 580.031 43.4508 580.031 73.9648Z" fill="#1F1F1F"/>
<path d="M598.175 145.961H604.447L610.229 51.8176H610.467L616.263 145.961H622.536L631.246 1.96865H624.215L619.177 102.229H618.909L613.365 1.96865H607.345L601.787 102.018H601.534L596.495 1.96865H589.465L598.175 145.961Z" fill="#1F1F1F"/>
<path d="M644.377 145.961H657.383C664.22 145.961 667.861 129.087 667.861 106.166C667.861 84.8627 664.636 71.9962 661.173 71.2228V69.8166C664.339 66.4418 666.672 55.8252 666.672 38.8808C666.672 17.296 663.283 1.96865 656.565 1.96865H644.377V145.961ZM650.813 121.072V82.8238H656.208C659.3 82.8238 661.217 91.2608 661.217 103.143C661.217 113.971 659.657 121.072 656.06 121.072H650.813ZM650.813 62.2233V26.5767H655.703C658.557 26.5767 660.177 33.5373 660.177 43.943C660.177 55.333 658.215 62.2233 655.584 62.2233H650.813Z" fill="#1F1F1F"/>
<path d="M690.895 1.96865V96.1121C690.895 111.51 688.265 120.861 684.668 120.861C681.115 120.861 678.485 111.51 678.485 96.1121V1.96865H672.049V97.1667C672.049 129.79 677.281 148 684.668 148C692.025 148 697.287 129.79 697.287 97.1667V1.96865H690.895Z" fill="#1F1F1F"/>
<path d="M700.798 1.96865L711.901 95.0575V145.961H718.292V95.0575L729.395 1.96865H722.186L715.245 63.981H714.948L708.007 1.96865H700.798Z" fill="#1F1F1F"/>
<path d="M768.058 1.96865H761.652V92.5264H761.384L748.245 1.96865H742.597V145.961H749.033V55.333H749.256L762.499 145.961H768.058V1.96865Z" fill="#1F1F1F"/>
<path d="M801.348 73.9648C801.348 26.858 795.165 0 787.094 0C778.979 0 772.84 26.858 772.84 73.9648C772.84 120.861 778.979 147.93 787.094 147.93C795.165 147.93 801.348 121.072 801.348 73.9648ZM794.823 73.9648C794.823 104.479 791.761 121.001 787.094 121.001C782.412 121.001 779.365 104.479 779.365 73.9648C779.365 43.4508 782.412 26.9283 787.094 26.9283C791.761 26.9283 794.823 43.4508 794.823 73.9648Z" fill="#1F1F1F"/>
<path d="M812.967 145.961H819.24L825.021 51.8176H825.259L831.056 145.961H837.328L846.038 1.96865H839.008L833.969 102.229H833.701L828.157 1.96865H822.138L816.579 102.018H816.326L811.288 1.96865H804.257L812.967 145.961Z" fill="#1F1F1F"/>
<path d="M859.17 145.961H872.175C879.012 145.961 882.654 129.087 882.654 106.166C882.654 84.8627 879.428 71.9962 875.965 71.2228V69.8166C879.131 66.4418 881.464 55.8252 881.464 38.8808C881.464 17.296 878.076 1.96865 871.357 1.96865H859.17V145.961ZM865.605 121.072V82.8238H871.001C874.092 82.8238 876.01 91.2608 876.01 103.143C876.01 113.971 874.449 121.072 870.852 121.072H865.605ZM865.605 62.2233V26.5767H870.495C873.349 26.5767 874.969 33.5373 874.969 43.943C874.969 55.333 873.007 62.2233 870.377 62.2233H865.605Z" fill="#1F1F1F"/>
<path d="M905.688 1.96865V96.1121C905.688 111.51 903.057 120.861 899.46 120.861C895.908 120.861 893.277 111.51 893.277 96.1121V1.96865H886.841V97.1667C886.841 129.79 892.073 148 899.46 148C906.817 148 912.079 129.79 912.079 97.1667V1.96865H905.688Z" fill="#1F1F1F"/>
<path d="M915.59 1.96865L926.693 95.0575V145.961H933.085V95.0575L944.187 1.96865H936.979L930.038 63.981H929.74L922.799 1.96865H915.59Z" fill="#1F1F1F"/>
<path d="M982.85 1.96865H976.444V92.5264H976.177L963.038 1.96865H957.39V145.961H963.825V55.333H964.048L977.292 145.961H982.85V1.96865Z" fill="#1F1F1F"/>
<path d="M1016.14 73.9648C1016.14 26.858 1009.96 0 1001.89 0C993.771 0 987.633 26.858 987.633 73.9648C987.633 120.861 993.771 147.93 1001.89 147.93C1009.96 147.93 1016.14 121.072 1016.14 73.9648ZM1009.62 73.9648C1009.62 104.479 1006.55 121.001 1001.89 121.001C997.205 121.001 994.158 104.479 994.158 73.9648C994.158 43.4508 997.205 26.9283 1001.89 26.9283C1006.55 26.9283 1009.62 43.4508 1009.62 73.9648Z" fill="#1F1F1F"/>
<path d="M1027.76 145.961H1034.03L1039.81 51.8176H1040.05L1045.85 145.961H1052.12L1060.83 1.96865H1053.8L1048.76 102.229H1048.49L1042.95 1.96865H1036.93L1031.37 102.018H1031.12L1026.08 1.96865H1019.05L1027.76 145.961Z" fill="#1F1F1F"/>
<path d="M1073.96 145.961H1086.97C1093.8 145.961 1097.45 129.087 1097.45 106.166C1097.45 84.8627 1094.22 71.9962 1090.76 71.2228V69.8166C1093.92 66.4418 1096.26 55.8252 1096.26 38.8808C1096.26 17.296 1092.87 1.96865 1086.15 1.96865H1073.96V145.961ZM1080.4 121.072V82.8238H1085.79C1088.88 82.8238 1090.8 91.2608 1090.8 103.143C1090.8 113.971 1089.24 121.072 1085.64 121.072H1080.4ZM1080.4 62.2233V26.5767H1085.29C1088.14 26.5767 1089.76 33.5373 1089.76 43.943C1089.76 55.333 1087.8 62.2233 1085.17 62.2233H1080.4Z" fill="#1F1F1F"/>
<path d="M1120.48 1.96865V96.1121C1120.48 111.51 1117.85 120.861 1114.25 120.861C1110.7 120.861 1108.07 111.51 1108.07 96.1121V1.96865H1101.63V97.1667C1101.63 129.79 1106.87 148 1114.25 148C1121.61 148 1126.87 129.79 1126.87 97.1667V1.96865H1120.48Z" fill="#1F1F1F"/>
<path d="M1130.38 1.96865L1141.49 95.0575V145.961H1147.88V95.0575L1158.98 1.96865H1151.77L1144.83 63.981H1144.53L1137.59 1.96865H1130.38Z" fill="#1F1F1F"/>
<path d="M1197.64 1.96865H1191.24V92.5264H1190.97L1177.83 1.96865H1172.18V145.961H1178.62V55.333H1178.84L1192.08 145.961H1197.64V1.96865Z" fill="#1F1F1F"/>
<path d="M1230.93 73.9648C1230.93 26.858 1224.75 0 1216.68 0C1208.56 0 1202.43 26.858 1202.43 73.9648C1202.43 120.861 1208.56 147.93 1216.68 147.93C1224.75 147.93 1230.93 121.072 1230.93 73.9648ZM1224.41 73.9648C1224.41 104.479 1221.35 121.001 1216.68 121.001C1212 121.001 1208.95 104.479 1208.95 73.9648C1208.95 43.4508 1212 26.9283 1216.68 26.9283C1221.35 26.9283 1224.41 43.4508 1224.41 73.9648Z" fill="#1F1F1F"/>
<path d="M1242.55 145.961H1248.82L1254.61 51.8176H1254.84L1260.64 145.961H1266.91L1275.62 1.96865H1268.59L1263.55 102.229H1263.29L1257.74 1.96865H1251.72L1246.16 102.018H1245.91L1240.87 1.96865H1233.84L1242.55 145.961Z" fill="#1F1F1F"/>
<path d="M1288.75 145.961H1301.76C1308.6 145.961 1312.24 129.087 1312.24 106.166C1312.24 84.8627 1309.01 71.9962 1305.55 71.2228V69.8166C1308.72 66.4418 1311.05 55.8252 1311.05 38.8808C1311.05 17.296 1307.66 1.96865 1300.94 1.96865H1288.75V145.961ZM1295.19 121.072V82.8238H1300.59C1303.68 82.8238 1305.59 91.2608 1305.59 103.143C1305.59 113.971 1304.03 121.072 1300.44 121.072H1295.19ZM1295.19 62.2233V26.5767H1300.08C1302.93 26.5767 1304.55 33.5373 1304.55 43.943C1304.55 55.333 1302.59 62.2233 1299.96 62.2233H1295.19Z" fill="#1F1F1F"/>
<path d="M1335.27 1.96865V96.1121C1335.27 111.51 1332.64 120.861 1329.04 120.861C1325.49 120.861 1322.86 111.51 1322.86 96.1121V1.96865H1316.43V97.1667C1316.43 129.79 1321.66 148 1329.04 148C1336.4 148 1341.66 129.79 1341.66 97.1667V1.96865H1335.27Z" fill="#1F1F1F"/>
<path d="M1345.18 1.96865L1356.28 95.0575V145.961H1362.67V95.0575L1373.77 1.96865H1366.56L1359.62 63.981H1359.33L1352.38 1.96865H1345.18Z" fill="#1F1F1F"/>
<path d="M1412.44 1.96865H1406.03V92.5264H1405.76L1392.62 1.96865H1386.97V145.961H1393.41V55.333H1393.63L1406.88 145.961H1412.44V1.96865Z" fill="#1F1F1F"/>
<path d="M1445.73 73.9648C1445.73 26.858 1439.54 0 1431.47 0C1423.36 0 1417.22 26.858 1417.22 73.9648C1417.22 120.861 1423.36 147.93 1431.47 147.93C1439.54 147.93 1445.73 121.072 1445.73 73.9648ZM1439.2 73.9648C1439.2 104.479 1436.14 121.001 1431.47 121.001C1426.79 121.001 1423.74 104.479 1423.74 73.9648C1423.74 43.4508 1426.79 26.9283 1431.47 26.9283C1436.14 26.9283 1439.2 43.4508 1439.2 73.9648Z" fill="#1F1F1F"/>
<path d="M1457.34 145.961H1463.62L1469.4 51.8176H1469.64L1475.43 145.961H1481.71L1490.42 1.96865H1483.38L1478.35 102.229H1478.08L1472.53 1.96865H1466.52L1460.96 102.018H1460.7L1455.66 1.96865H1448.63L1457.34 145.961Z" fill="#1F1F1F"/>
<path d="M1503.55 145.961H1516.55C1523.39 145.961 1527.03 129.087 1527.03 106.166C1527.03 84.8627 1523.81 71.9962 1520.34 71.2228V69.8166C1523.51 66.4418 1525.84 55.8252 1525.84 38.8808C1525.84 17.296 1522.45 1.96865 1515.73 1.96865H1503.55V145.961ZM1509.98 121.072V82.8238H1515.38C1518.47 82.8238 1520.39 91.2608 1520.39 103.143C1520.39 113.971 1518.83 121.072 1515.23 121.072H1509.98ZM1509.98 62.2233V26.5767H1514.87C1517.73 26.5767 1519.35 33.5373 1519.35 43.943C1519.35 55.333 1517.38 62.2233 1514.75 62.2233H1509.98Z" fill="#1F1F1F"/>
<path d="M1550.07 1.96865V96.1121C1550.07 111.51 1547.43 120.861 1543.84 120.861C1540.29 120.861 1537.65 111.51 1537.65 96.1121V1.96865H1531.22V97.1667C1531.22 129.79 1536.45 148 1543.84 148C1551.19 148 1556.46 129.79 1556.46 97.1667V1.96865H1550.07Z" fill="#1F1F1F"/>
<path d="M1559.97 1.96865L1571.07 95.0575V145.961H1577.46V95.0575L1588.56 1.96865H1581.36L1574.41 63.981H1574.12L1567.18 1.96865H1559.97Z" fill="#1F1F1F"/>
<path d="M1627.23 1.96865H1620.82V92.5264H1620.55L1607.41 1.96865H1601.77V145.961H1608.2V55.333H1608.43L1621.67 145.961H1627.23V1.96865Z" fill="#1F1F1F"/>
<path d="M1660.52 73.9648C1660.52 26.858 1654.33 0 1646.26 0C1638.15 0 1632.01 26.858 1632.01 73.9648C1632.01 120.861 1638.15 147.93 1646.26 147.93C1654.33 147.93 1660.52 121.072 1660.52 73.9648ZM1653.99 73.9648C1653.99 104.479 1650.93 121.001 1646.26 121.001C1641.58 121.001 1638.53 104.479 1638.53 73.9648C1638.53 43.4508 1641.58 26.9283 1646.26 26.9283C1650.93 26.9283 1653.99 43.4508 1653.99 73.9648Z" fill="#1F1F1F"/>
<path d="M1672.14 145.961H1678.41L1684.19 51.8176H1684.43L1690.23 145.961H1696.5L1705.21 1.96865H1698.18L1693.14 102.229H1692.87L1687.33 1.96865H1681.31L1675.75 102.018H1675.5L1670.46 1.96865H1663.43L1672.14 145.961Z" fill="#1F1F1F"/>
<path d="M1718.34 145.961H1731.34C1738.18 145.961 1741.82 129.087 1741.82 106.166C1741.82 84.8627 1738.6 71.9962 1735.13 71.2228V69.8166C1738.3 66.4418 1740.63 55.8252 1740.63 38.8808C1740.63 17.296 1737.25 1.96865 1730.53 1.96865H1718.34V145.961ZM1724.78 121.072V82.8238H1730.17C1733.26 82.8238 1735.18 91.2608 1735.18 103.143C1735.18 113.971 1733.62 121.072 1730.02 121.072H1724.78ZM1724.78 62.2233V26.5767H1729.67C1732.52 26.5767 1734.14 33.5373 1734.14 43.943C1734.14 55.333 1732.18 62.2233 1729.55 62.2233H1724.78Z" fill="#1F1F1F"/>
<path d="M1764.86 1.96865V96.1121C1764.86 111.51 1762.23 120.861 1758.63 120.861C1755.08 120.861 1752.45 111.51 1752.45 96.1121V1.96865H1746.01V97.1667C1746.01 129.79 1751.24 148 1758.63 148C1765.99 148 1771.25 129.79 1771.25 97.1667V1.96865H1764.86Z" fill="#1F1F1F"/>
<path d="M1774.76 1.96865L1785.86 95.0575V145.961H1792.25V95.0575L1803.36 1.96865H1796.15L1789.21 63.981H1788.91L1781.97 1.96865H1774.76Z" fill="#1F1F1F"/>
<path d="M1842.02 1.96865H1835.61V92.5264H1835.35L1822.21 1.96865H1816.56V145.961H1823V55.333H1823.22L1836.46 145.961H1842.02V1.96865Z" fill="#1F1F1F"/>
<path d="M1875.31 73.9648C1875.31 26.858 1869.13 0 1861.06 0C1852.94 0 1846.8 26.858 1846.8 73.9648C1846.8 120.861 1852.94 147.93 1861.06 147.93C1869.13 147.93 1875.31 121.072 1875.31 73.9648ZM1868.78 73.9648C1868.78 104.479 1865.72 121.001 1861.06 121.001C1856.37 121.001 1853.33 104.479 1853.33 73.9648C1853.33 43.4508 1856.37 26.9283 1861.06 26.9283C1865.72 26.9283 1868.78 43.4508 1868.78 73.9648Z" fill="#1F1F1F"/>
<path d="M1886.93 145.961H1893.2L1898.98 51.8176H1899.22L1905.02 145.961H1911.29L1920 1.96865H1912.97L1907.93 102.229H1907.66L1902.12 1.96865H1896.1L1890.54 102.018H1890.29L1885.25 1.96865H1878.22L1886.93 145.961Z" fill="#1F1F1F"/>
</svg>
